<svg width="59" height="59" viewBox="0 0 59 59" fill="none" xmlns="http://www.w3.org/2000/svg">
<path d="M35.6459 15.9792C37.4581 16.3327 39.257 17.1319 40.5626 18.4375C41.8682 19.7431 42.6674 21.542 43.0209 23.3542M36.8751 7.375C40.6401 7.79326 44.0281 9.61471 46.7084 12.2917C49.3888 14.9686 51.2021 18.3605 51.6251 22.125M51.6238 40.5051V47.1666C51.6341 49.7131 49.3444 51.8395 46.7735 51.6077C24.5836 51.625 7.37524 34.2568 7.39261 12.2159C7.16106 9.65866 9.27695 7.37761 11.8202 7.37522H18.4949C19.5747 7.36461 20.6214 7.74621 21.4401 8.4489C23.7677 10.4467 25.2649 17.2274 24.6888 19.923C24.2391 22.0276 22.1176 23.4999 20.6753 24.9394C23.8426 30.4985 28.4546 35.1014 34.0247 38.2624C35.4671 36.823 36.9424 34.7057 39.0511 34.2568C41.7562 33.6811 48.5806 35.1803 50.5703 37.5241C51.2759 38.3552 51.6508 39.4161 51.6238 40.5051Z" stroke="#C0B7E8" stroke-width="6" stroke-linecap="round" stroke-linejoin="round"/>
</svg>
